<?xml version="1.0" encoding="utf-8"?>
<!-- Svg Vector Icons : http://www.onlinewebfonts.com/icon -->
<!DOCTYPE svg PUBLIC "-//W3C//DTD SVG 1.1//EN" "http://www.w3.org/Graphics/SVG/1.1/DTD/svg11.dtd">
<svg version="1.1" xmlns="http://www.w3.org/2000/svg" xmlns:xlink="http://www.w3.org/1999/xlink" x="0px" y="0px" viewBox="0 0 256 256" enable-background="new 0 0 256 256" xml:space="preserve">
<metadata> Svg Vector Icons : http://www.onlinewebfonts.com/icon </metadata>
<g><g><path fill="#000000" d="M76.8,46.5c16.1,0,32.3,0,48.4,0c12.1,0,24.2,0,36.2,0c2.8,0,5.2-2.4,5.2-5.2c0-12,0-24,0-36c-3,1.2-6,2.5-8.9,3.7c9.6,9.8,19.2,19.7,28.8,29.5c14.5,14.9,29,29.7,43.4,44.6c2.4,2.5,4.8,4.9,7.2,7.4c0-2.5,0-4.9,0-7.4c-10.7,10-21.4,20-32.2,29.9c-13.7,12.7-27.4,25.5-41.1,38.2c-0.7,0.6-1.3,1.2-2,1.9c3,1.2,6,2.5,8.9,3.7c0-12.2,0-24.4,0-36.6c0-2.8-2.4-5.2-5.2-5.2c-17,0-34,0-51,0c-7.4,0-14.8,0-22.1,0c1.8,1.8,3.5,3.5,5.2,5.2c0-11.7,0-23.3,0-35c0-4.6-5.7-6.9-8.9-3.7c-10.1,10-20.2,19.9-30.3,29.9c-14.2,14-28.4,28-42.6,42c-1.5,1.5-3,2.9-4.4,4.4c-2.2,2.1-1.8,5.2,0,7.4c8.7,10.4,17.4,20.8,26.1,31.2c13.5,16.2,27.1,32.3,40.6,48.5c2.7,3.2,5.3,6.4,8,9.6c3,3.6,8.9,0.6,8.9-3.7c0-13.2,0-26.5,0-39.7c-1.7,1.8-3.5,3.5-5.2,5.2c17.3,0,34.7,0,52.1,0c4.3,0,8.6,0,12.9,0c6.7,0,6.7-10.4,0-10.4c-17.3,0-34.7,0-52.1,0c-4.3,0-8.6,0-12.9,0c-2.8,0-5.2,2.4-5.2,5.2c0,13.2,0,26.5,0,39.7c3-1.2,6-2.5,8.9-3.7c-8.7-10.4-17.4-20.8-26.1-31.2c-13.5-16.2-27.1-32.3-40.6-48.5c-2.7-3.2-5.3-6.4-8-9.6c0,2.5,0,4.9,0,7.4c10.1-10,20.2-19.9,30.3-29.9c14.2-14,28.4-28,42.6-42c1.5-1.5,3-2.9,4.4-4.4c-3-1.2-6-2.5-8.9-3.7c0,11.7,0,23.3,0,35c0,2.8,2.4,5.2,5.2,5.2c17,0,34,0,51,0c7.4,0,14.8,0,22.1,0c-1.8-1.8-3.5-3.5-5.2-5.2c0,12.2,0,24.4,0,36.6c0,4.7,5.6,6.7,8.9,3.7c10.7-10,21.4-20,32.1-29.9c13.7-12.7,27.4-25.5,41.1-38.2c0.7-0.6,1.3-1.2,2-1.9c2.1-2,1.9-5.4,0-7.4c-9.6-9.8-19.2-19.7-28.8-29.5c-14.5-14.9-28.9-29.7-43.4-44.6c-2.4-2.5-4.8-4.9-7.2-7.4c-3.2-3.3-8.9-0.8-8.9,3.7c0,12,0,24,0,36c1.8-1.8,3.5-3.5,5.2-5.2c-16.1,0-32.3,0-48.4,0c-12.1,0-24.2,0-36.2,0C70.1,36.1,70.1,46.5,76.8,46.5L76.8,46.5z"/></g></g>
</svg>