<?xml version="1.0" encoding="UTF-8" standalone="no"?>
<!-- Uploaded to: SVG Repo, www.svgrepo.com, Generator: SVG Repo Mixer Tools -->

<svg
   width="460.91385"
   height="380.68527"
   viewBox="-20 0 109.46704 90.412752"
   fill="none"
   version="1.1"
   id="svg4"
   sodipodi:docname="brain.svg"
   inkscape:version="1.1.2 (0a00cf5339, 2022-02-04)"
   xmlns:inkscape="http://www.inkscape.org/namespaces/inkscape"
   xmlns:sodipodi="http://sodipodi.sourceforge.net/DTD/sodipodi-0.dtd"
   xmlns="http://www.w3.org/2000/svg"
   xmlns:svg="http://www.w3.org/2000/svg">
  <defs
     id="defs8" />
  <sodipodi:namedview
     id="namedview6"
     pagecolor="#ffffff"
     bordercolor="#666666"
     borderopacity="1.0"
     inkscape:pageshadow="2"
     inkscape:pageopacity="0.0"
     inkscape:pagecheckerboard="0"
     showgrid="false"
     units="mm"
     fit-margin-top="0"
     fit-margin-left="0"
     fit-margin-right="0"
     fit-margin-bottom="0"
     inkscape:zoom="0.9775"
     inkscape:cx="230.69054"
     inkscape:cy="141.17647"
     inkscape:window-width="1920"
     inkscape:window-height="1043"
     inkscape:window-x="0"
     inkscape:window-y="0"
     inkscape:window-maximized="1"
     inkscape:current-layer="svg4" />
  <path
     fill-rule="evenodd"
     clip-rule="evenodd"
     d="m 89.202718,52.942751 c -0.369,2.451 -1.303,4.783 -2.728,6.812 -1.425,2.029 -3.301,3.699 -5.482,4.878 -0.604,0.335 -1.237,0.616 -1.89,0.84 0.83,11 -16.65,15 -26.07,12.38 l 3.5,12.24 -9,0.32 -15.75,-22.55 c -5.31,1.5 -11.58,2.22 -15.63,-4.28 -0.3679,-0.597 -0.7018,-1.215 -1,-1.85 -1.0302,0.21 -2.0786,0.317 -3.13,0.32 -2.9999997,0 -7.9999997,-0.9 -10.5399997,-2.66 -2.01370003,-1.335 -3.6112,-3.21 -4.61,-5.41 -5.41,0.74 -10.0000003,-0.53 -13.0000003,-3.67 -3.8,-3.91 -4.88,-10.37 -2.9,-17.3 2.61,-9.25 10.5500003,-19.67 26.3300003,-23.5799998 1.3689,-1.7018 3.0071997,-3.1678 4.8499997,-4.34 9.91,-6.35 26,-6.9 38.21,-0.87 4.7336,-0.8818 9.62,-0.414 14.1,1.35 8.78,3.29 15.16,10.1699998 16.36,17.1599998 2.377,1.2317 4.323,3.1568 5.58,5.52 2.63,4.94 3,9.89 1.23,13.89 1.667,3.339 2.218,7.125 1.57,10.8 z m -6.48,-5.2 c -1.398,0.738 -2.954,1.124 -4.535,1.124 -1.581,0 -3.137,-0.386 -4.535,-1.124 l 0.73,-4.85 c 3.08,0.3 5.59,-0.66 6.9,-2.63 1.47,-2.19 1.24,-5.44 -0.62,-8.93 -2.08,-3.91 -6.57,-4.53 -9.06,-4.56 h -0.16 c -6.24,0 -12.6,3.55 -15.17,8.18 l -3.74,-1.79 c 0.7353,-2.3851 1.9846,-4.58 3.66,-6.43 -1.4424,-1.2246 -2.5326,-2.8113 -3.1583,-4.597 -0.6257,-1.7857 -0.7643,-3.7059 -0.4017,-5.563 l 3.69,-0.34 c 0.1689,1.502 0.79,2.9172 1.7811,4.0583 0.9911,1.1411 2.3059,1.9542 3.7689,2.3317 3.078,-1.3739 6.42,-2.0565 9.79,-2 0.48,0 0.94,0.05 1.41,0.08 -2.391,-4.2388 -6.18,-7.5155 -10.72,-9.27 -11.08,-4.2999998 -18.55,2.37 -20.26,4.67 -4.12,5.52 -1.48,10.74 0.53,14.13 l -3.3,3 c -2.874,-2.486 -4.8025,-5.8873 -5.46,-9.63 -4.23,1.27 -9.91,1 -13.09,-4.43 l 3,-2.06 c 3.37,2.52 8.72,2.3 11.26,-0.81 0.6052,-1.3751 1.3705,-2.6741 2.28,-3.87 1.444,-1.907 3.1864,-3.5683998 5.16,-4.9199998 -8.29,-2.26 -20,-1.89 -27.08,2.6499998 -1.9132,1.111 -3.488,2.7217 -4.5556,4.6595 -1.0674997,1.9379 -1.5875997,4.1297 -1.5043997,6.3405 0,3.57 2.7999997,9.21 6.5699997,10.09 l -2.19,4.25 c -2.4054,-0.5571 -4.5890997,-1.8213 -6.2699997,-3.63 l -3.25,4.14 -3.25000003,-1.58 3.18000003,-8.32 c -0.5196,-1.616 -0.786,-3.3026 -0.79,-5 0.008,-1.3439 0.1487,-2.6837 0.42,-4 -10,4.13 -14.9400003,11 -16.7500003,17.28 -1.39,4.83 -0.85,9.19 1.43,11.53 1.8100003,1.86 4.5800003,2.3 7.1900003,2.13 l 7,-5.45 2.3,1.94 -2.08,6.82 c 1.09,3.47 4.66,5.26 11.1699997,4 0.3375,-2.761 1.4272,-5.376 3.15,-7.56 1.2633,-1.818 2.9346,-3.314 4.88,-4.37 l 3.42,-9.21 3.42,-0.15 -0.37,7.55 c 5.75,-0.59 12.18,0.58 18.17,-0.32 l 1.1,4 c -8.78,4.06 -17.77,-2.56 -25.92,6.17 -2.93,3.14 -1.81,5.87 0,8.62 2.61,3.93 7.51,1.57 12.52,0 7.59,-2.32 13.1,-4 23.49,-3.15 -2.48,-4.71 -2.24,-10.4 1.08,-16.66 l 4.89,1.93 c -3.43,7.91 -0.22,12.49 2,14.51 3.43,3.12 8.59,4.06 12,2.18 1.306,-0.721 2.429,-1.733 3.282,-2.957 0.853,-1.224 1.413,-2.628 1.638,-4.103 0.225,-1.359 0.208,-2.747 -0.05,-4.1 z"
     fill="#000000"
     id="path2" />
</svg>
